<svg width="1570" height="306" viewBox="0 0 1570 306" fill="none" xmlns="http://www.w3.org/2000/svg">
<path fill-rule="evenodd" clip-rule="evenodd" d="M631.765 117.165C669.685 117.165 698.965 142.605 698.965 184.125C698.965 187.005 698.485 191.085 698.245 194.205H600.565C604.165 210.285 617.845 220.125 637.525 220.125C651.205 220.125 661.045 216.045 669.925 207.645L689.845 229.245C677.845 242.925 659.845 250.125 636.565 250.125C591.925 250.125 562.885 222.045 562.885 183.645C562.885 145.005 592.405 117.165 631.765 117.165ZM632.005 145.485C614.965 145.485 602.725 155.805 600.085 172.365H663.685C661.045 156.045 648.805 145.485 632.005 145.485Z" fill="white"/>
<path fill-rule="evenodd" clip-rule="evenodd" d="M961.925 117.165C1002.96 117.165 1032.72 144.765 1032.72 183.645C1032.72 222.525 1002.96 250.125 961.925 250.125C920.885 250.125 890.885 222.525 890.885 183.645C890.885 144.765 920.885 117.165 961.925 117.165ZM961.925 147.885C943.205 147.885 928.805 161.325 928.805 183.645C928.805 205.965 943.205 219.405 961.925 219.405C980.645 219.405 994.805 205.965 994.805 183.645C994.804 161.325 980.645 147.885 961.925 147.885Z" fill="white"/>
<path fill-rule="evenodd" clip-rule="evenodd" d="M1494 248.205H1458V233.325C1448.57 244.605 1434.78 250.125 1417.38 250.125C1380.64 250.125 1352.37 224.205 1352.37 183.645C1352.37 143.085 1380.65 117.165 1417.38 117.165C1433.33 117.165 1446.87 122.205 1456.29 132.765V70.1251H1494V248.205ZM1423.92 147.885C1405.06 147.885 1390.55 161.325 1390.55 183.645C1390.55 205.965 1405.06 219.405 1423.92 219.405C1442.53 219.405 1457.03 205.965 1457.03 183.645C1457.03 161.325 1442.52 147.885 1423.92 147.885Z" fill="white"/>
<path fill-rule="evenodd" clip-rule="evenodd" d="M491.845 80.2052C536.725 80.2052 564.805 103.485 564.805 141.165C564.805 166.365 552.085 184.845 530.245 194.205L567.925 248.205H526.165L493.765 201.405H458.005V248.205H419.125V80.2052H491.845ZM458.005 170.445H489.685C513.445 170.445 525.445 159.405 525.445 141.165C525.445 122.685 513.445 111.885 489.685 111.885H458.005V170.445Z" fill="white"/>
<path d="M895.085 111.405H807.005V155.805H884.765V187.005H807.005V248.205H768.125V80.2052H895.085V111.405Z" fill="white"/>
<path d="M1119.65 151.725C1116.53 151.485 1114.13 151.245 1111.25 151.245C1090.61 151.245 1076.92 162.525 1076.92 187.245V248.205H1039.49V119.085H1075.25V136.125C1084.37 123.645 1099.73 117.165 1119.65 117.165V151.725Z" fill="white"/>
<path d="M1293.84 117.165C1324.56 117.165 1346.65 134.925 1346.65 174.285V248.205H1309.21V180.045C1309.21 159.165 1299.84 149.566 1284.72 149.566C1267.92 149.566 1256.17 160.366 1256.17 183.405V248.205H1218.72V180.045C1218.72 159.165 1209.85 149.566 1194.25 149.566C1177.69 149.566 1165.92 160.365 1165.92 183.405V248.205H1128.49V119.085H1164.25V133.965C1173.85 122.925 1188.24 117.165 1204.8 117.165C1222.8 117.165 1238.17 124.125 1247.29 138.285C1257.61 125.085 1274.4 117.165 1293.84 117.165Z" fill="white"/>
<path d="M731.805 202.405C744.605 202.405 756.205 211.405 756.205 224.405C756.205 237.205 744.605 246.205 731.805 246.205C719.005 246.205 708.005 237.205 708.005 224.405C708.005 211.405 719.005 202.405 731.805 202.405Z" fill="white"/>
<path d="M731.805 137.205C744.605 137.205 756.205 146.205 756.205 159.205C756.205 172.005 744.605 181.005 731.805 181.005C719.005 181.005 708.005 172.005 708.005 159.205C708.005 146.205 719.005 137.205 731.805 137.205Z" fill="white"/>
<path d="M1527.83 80.7247H1516.62V109.125H1508.53V80.7247H1497.33V74.1251H1527.83V80.7247Z" fill="white"/>
<path d="M1550.08 95.8751L1562.97 74.1251H1569.62L1569.72 109.125H1562.12L1562.08 88.1251L1551.78 105.425H1548.12L1537.88 88.5753V109.125H1530.28V74.1251H1536.97L1550.08 95.8751Z" fill="white"/>
<path d="M262.035 111.329C281.36 157.985 253.982 179.132 237.878 183.873C254.93 183.873 294.148 176.476 314.61 146.89C340.188 109.906 327.399 75.7674 317.452 58.6982C306.712 40.2681 263.825 0.378382 195.249 0.378304C192.407 0.378301 149.149 -1.4355 121.359 4.6456C89.6576 11.5826 63.6598 26.9375 54.5734 34.5172C108.002 12.8962 160.199 23.6119 179.618 31.6724C199.038 38.7845 242.709 64.6729 262.035 111.329Z" fill="white"/>
<path d="M106.554 195.323C86.4185 149.012 113.423 127.39 129.442 122.368C112.393 122.666 73.3094 130.746 53.3664 160.686C28.4377 198.111 41.8196 232.021 52.0625 248.914C63.1219 267.153 106.699 306.288 175.264 305.09C178.105 305.04 221.389 306.098 249.068 299.532C280.644 292.042 306.37 276.236 315.323 268.498C262.28 291.05 209.904 281.247 190.346 273.527C170.806 266.756 126.69 241.634 106.554 195.323Z" fill="white"/>
<path d="M228.927 125.021C40.367 61.7216 12.3794 161.589 21.9555 219.435C-11.2742 169.944 0.686225 115.415 10.8202 94.3369C22.2294 74.3958 62.294 36.3654 131.279 43.7723C200.264 51.1792 225.121 101.025 228.927 125.021Z" fill="white"/>
<path d="M149.093 193.257C343.229 236.48 360.635 134.231 345.071 77.7036C383.287 123.446 377.086 178.928 369.208 200.951C359.944 221.977 324.07 263.991 254.69 263.843C185.309 263.695 155.383 216.724 149.093 193.257Z" fill="white"/>
<path fill-rule="evenodd" clip-rule="evenodd" d="M631.765 117.165C669.685 117.165 698.965 142.605 698.965 184.125C698.965 187.005 698.485 191.085 698.245 194.205H600.565C604.165 210.285 617.845 220.125 637.525 220.125C651.205 220.125 661.045 216.045 669.925 207.645L689.845 229.245C677.845 242.925 659.845 250.125 636.565 250.125C591.925 250.125 562.885 222.045 562.885 183.645C562.885 145.005 592.405 117.165 631.765 117.165ZM632.005 145.485C614.965 145.485 602.725 155.805 600.085 172.365H663.685C661.045 156.045 648.805 145.485 632.005 145.485Z" stroke="white" stroke-width="0.25"/>
<path fill-rule="evenodd" clip-rule="evenodd" d="M961.925 117.165C1002.96 117.165 1032.72 144.765 1032.72 183.645C1032.72 222.525 1002.96 250.125 961.925 250.125C920.885 250.125 890.885 222.525 890.885 183.645C890.885 144.765 920.885 117.165 961.925 117.165ZM961.925 147.885C943.205 147.885 928.805 161.325 928.805 183.645C928.805 205.965 943.205 219.405 961.925 219.405C980.645 219.405 994.805 205.965 994.805 183.645C994.804 161.325 980.645 147.885 961.925 147.885Z" stroke="white" stroke-width="0.25"/>
<path fill-rule="evenodd" clip-rule="evenodd" d="M1494 248.205H1458V233.325C1448.57 244.605 1434.78 250.125 1417.38 250.125C1380.64 250.125 1352.37 224.205 1352.37 183.645C1352.37 143.085 1380.65 117.165 1417.38 117.165C1433.33 117.165 1446.87 122.205 1456.29 132.765V70.1251H1494V248.205ZM1423.92 147.885C1405.06 147.885 1390.55 161.325 1390.55 183.645C1390.55 205.965 1405.06 219.405 1423.92 219.405C1442.53 219.405 1457.03 205.965 1457.03 183.645C1457.03 161.325 1442.52 147.885 1423.92 147.885Z" stroke="white" stroke-width="0.25"/>
<path fill-rule="evenodd" clip-rule="evenodd" d="M491.845 80.2052C536.725 80.2052 564.805 103.485 564.805 141.165C564.805 166.365 552.085 184.845 530.245 194.205L567.925 248.205H526.165L493.765 201.405H458.005V248.205H419.125V80.2052H491.845ZM458.005 170.445H489.685C513.445 170.445 525.445 159.405 525.445 141.165C525.445 122.685 513.445 111.885 489.685 111.885H458.005V170.445Z" stroke="white" stroke-width="0.25"/>
<path d="M895.085 111.405H807.005V155.805H884.765V187.005H807.005V248.205H768.125V80.2052H895.085V111.405Z" stroke="white" stroke-width="0.25"/>
<path d="M1119.65 151.725C1116.53 151.485 1114.13 151.245 1111.25 151.245C1090.61 151.245 1076.92 162.525 1076.92 187.245V248.205H1039.49V119.085H1075.25V136.125C1084.37 123.645 1099.73 117.165 1119.65 117.165V151.725Z" stroke="white" stroke-width="0.25"/>
<path d="M1293.84 117.165C1324.56 117.165 1346.65 134.925 1346.65 174.285V248.205H1309.21V180.045C1309.21 159.165 1299.84 149.566 1284.72 149.566C1267.92 149.566 1256.17 160.366 1256.17 183.405V248.205H1218.72V180.045C1218.72 159.165 1209.85 149.566 1194.25 149.566C1177.69 149.566 1165.92 160.365 1165.92 183.405V248.205H1128.49V119.085H1164.25V133.965C1173.85 122.925 1188.24 117.165 1204.8 117.165C1222.8 117.165 1238.17 124.125 1247.29 138.285C1257.61 125.085 1274.4 117.165 1293.84 117.165Z" stroke="white" stroke-width="0.25"/>
<path d="M731.805 202.405C744.605 202.405 756.205 211.405 756.205 224.405C756.205 237.205 744.605 246.205 731.805 246.205C719.005 246.205 708.005 237.205 708.005 224.405C708.005 211.405 719.005 202.405 731.805 202.405Z" stroke="white" stroke-width="0.25"/>
<path d="M731.805 137.205C744.605 137.205 756.205 146.205 756.205 159.205C756.205 172.005 744.605 181.005 731.805 181.005C719.005 181.005 708.005 172.005 708.005 159.205C708.005 146.205 719.005 137.205 731.805 137.205Z" stroke="white" stroke-width="0.25"/>
<path d="M1527.83 80.7247H1516.62V109.125H1508.53V80.7247H1497.33V74.1251H1527.83V80.7247Z" stroke="white" stroke-width="0.25"/>
<path d="M1550.08 95.8751L1562.97 74.1251H1569.62L1569.72 109.125H1562.12L1562.08 88.1251L1551.78 105.425H1548.12L1537.88 88.5753V109.125H1530.28V74.1251H1536.97L1550.08 95.8751Z" stroke="white" stroke-width="0.25"/>
<path d="M262.035 111.329C281.36 157.985 253.982 179.132 237.878 183.873C254.93 183.873 294.148 176.476 314.61 146.89C340.188 109.906 327.399 75.7674 317.452 58.6982C306.712 40.2681 263.825 0.378382 195.249 0.378304C192.407 0.378301 149.149 -1.4355 121.359 4.6456C89.6576 11.5826 63.6598 26.9375 54.5734 34.5172C108.002 12.8962 160.199 23.6119 179.618 31.6724C199.038 38.7845 242.709 64.6729 262.035 111.329Z" stroke="white" stroke-width="0.25"/>
<path d="M106.554 195.323C86.4185 149.012 113.423 127.39 129.442 122.368C112.393 122.666 73.3094 130.746 53.3664 160.686C28.4377 198.111 41.8196 232.021 52.0625 248.914C63.1219 267.153 106.699 306.288 175.264 305.09C178.105 305.04 221.389 306.098 249.068 299.532C280.644 292.042 306.37 276.236 315.323 268.498C262.28 291.05 209.904 281.247 190.346 273.527C170.806 266.756 126.69 241.634 106.554 195.323Z" stroke="white" stroke-width="0.25"/>
<path d="M228.927 125.021C40.367 61.7216 12.3794 161.589 21.9555 219.435C-11.2742 169.944 0.686225 115.415 10.8202 94.3369C22.2294 74.3958 62.294 36.3654 131.279 43.7723C200.264 51.1792 225.121 101.025 228.927 125.021Z" stroke="white" stroke-width="0.25"/>
<path d="M149.093 193.257C343.229 236.48 360.635 134.231 345.071 77.7036C383.287 123.446 377.086 178.928 369.208 200.951C359.944 221.977 324.07 263.991 254.69 263.843C185.309 263.695 155.383 216.724 149.093 193.257Z" stroke="white" stroke-width="0.25"/>
</svg>
