<svg width="604" height="368" viewBox="0 0 604 368" fill="none" xmlns="http://www.w3.org/2000/svg">
<path fill-rule="evenodd" clip-rule="evenodd" d="M111.624 229.876C131.53 229.876 146.9 241.571 146.9 260.659C146.9 261.983 146.648 263.858 146.522 265.293H95.246C97.1358 272.685 104.317 277.209 114.648 277.209C121.829 277.208 126.994 275.333 131.656 271.471L142.113 281.401C135.813 287.69 126.365 291 114.144 291C90.7105 291 75.4658 278.091 75.4658 260.438C75.4659 242.675 90.9622 229.876 111.624 229.876ZM111.75 242.896C102.805 242.896 96.3796 247.64 94.9938 255.253H128.38C126.994 247.75 120.569 242.896 111.75 242.896Z" fill="black"/>
<path fill-rule="evenodd" clip-rule="evenodd" d="M284.939 229.876C306.483 229.876 322.105 242.564 322.105 260.438C322.105 278.312 306.483 291 284.939 291C263.396 291 247.647 278.312 247.647 260.438C247.647 242.564 263.396 229.876 284.939 229.876ZM284.939 243.999C275.113 243.999 267.553 250.177 267.553 260.438C267.553 270.699 275.112 276.878 284.939 276.878C294.766 276.878 302.199 270.699 302.199 260.438C302.199 250.177 294.766 243.999 284.939 243.999Z" fill="black"/>
<path fill-rule="evenodd" clip-rule="evenodd" d="M564.251 290.117H545.348V283.277C540.398 288.462 533.164 291 524.03 291C504.744 291 489.899 279.084 489.899 260.438C489.899 241.792 504.744 229.876 524.03 229.876C532.403 229.876 539.511 232.193 544.456 237.048V208.251H564.251V290.117ZM527.458 243.999C517.559 243.999 509.946 250.177 509.946 260.438C509.946 270.699 517.559 276.878 527.458 276.878C537.227 276.878 544.839 270.699 544.839 260.438C544.839 250.177 537.227 243.999 527.458 243.999Z" fill="black"/>
<path fill-rule="evenodd" clip-rule="evenodd" d="M38.1738 212.885C61.7332 212.885 76.4736 223.587 76.4736 240.909C76.4736 252.494 69.7965 260.99 58.3318 265.293L78.1115 290.117H56.19L39.1816 268.603H20.4097V290.117H0V212.885H38.1738ZM20.4097 254.37H37.0398C49.5125 254.37 55.8122 249.295 55.8122 240.909C55.8122 232.414 49.5125 227.449 37.0398 227.449H20.4097V254.37Z" fill="black"/>
<path d="M249.852 227.228H203.615V247.639H244.435V261.983H203.615V290.117H183.205V212.885H249.852V227.228Z" fill="black"/>
<path d="M367.734 245.764C366.096 245.653 364.836 245.543 363.324 245.543C352.489 245.543 345.308 250.729 345.308 262.093V290.117H325.654V230.759H344.426V238.592C349.214 232.855 357.277 229.876 367.734 229.876V245.764Z" fill="black"/>
<path d="M459.179 229.876C475.305 229.876 486.896 238.041 486.896 256.135V290.117H467.242V258.783C467.242 249.184 462.328 244.771 454.391 244.771C445.572 244.771 439.399 249.736 439.399 260.328V290.117H419.745V258.783C419.745 249.184 415.084 244.771 406.894 244.771C398.201 244.771 392.028 249.736 392.028 260.328V290.117H372.374V230.759H391.146V237.599C396.186 232.524 403.745 229.876 412.438 229.876C421.887 229.876 429.95 233.076 434.737 239.585C440.155 233.517 448.974 229.876 459.179 229.876Z" fill="black"/>
<path d="M164.139 269.062C170.859 269.062 176.948 273.2 176.948 279.176C176.948 285.061 170.858 289.198 164.139 289.198C157.42 289.198 151.646 285.06 151.646 279.176C151.646 273.2 157.42 269.063 164.139 269.062Z" fill="black"/>
<path d="M164.139 239.089C170.859 239.089 176.948 243.226 176.948 249.203C176.948 255.087 170.859 259.224 164.139 259.224C157.42 259.224 151.646 255.087 151.646 249.203C151.646 243.226 157.42 239.089 164.139 239.089Z" fill="black"/>
<path d="M582.005 213.124H576.126V226.18H571.874V213.124H565.994V210.09H582.005V213.124Z" fill="black"/>
<path d="M593.685 220.089L600.457 210.09H603.948L604 226.18H600.011L599.984 216.526L594.578 224.479H592.661L587.281 216.733V226.18H583.291V210.09H586.808L593.685 220.089Z" fill="black"/>
<path d="M311.345 69.0567C325.061 98.0297 305.63 111.162 294.201 114.106C306.303 114.106 334.137 109.513 348.659 91.1398C366.812 68.1734 357.736 46.9733 350.676 36.3735C343.054 24.9285 312.615 0.157301 263.946 0.157253C261.929 0.157251 231.227 -0.969108 211.504 2.80721C189.005 7.11504 170.554 16.6503 164.105 21.3573C202.024 7.93078 239.07 14.5851 252.852 19.5906C266.635 24.0073 297.63 40.0837 311.345 69.0567Z" fill="black"/>
<path d="M200.997 121.217C186.706 92.4576 205.872 79.0305 217.241 75.9118C205.141 76.0968 177.402 81.1149 163.248 99.7072C145.556 122.948 155.053 144.006 162.323 154.496C170.172 165.823 201.099 190.125 249.762 189.381C251.778 189.35 282.498 190.007 302.143 185.93C324.552 181.279 342.811 171.463 349.165 166.658C311.519 180.662 274.347 174.575 260.466 169.781C246.598 165.576 215.288 149.975 200.997 121.217Z" fill="black"/>
<path d="M287.847 77.5598C154.022 38.251 134.159 100.268 140.955 136.19C117.371 105.456 125.86 71.5943 133.052 58.5049C141.15 46.1216 169.584 22.505 218.545 27.1046C267.505 31.7043 285.147 62.6579 287.847 77.5598Z" fill="black"/>
<path d="M231.188 119.933C368.971 146.775 381.324 83.2787 370.278 48.1757C397.401 76.5817 393 111.036 387.409 124.712C380.834 137.768 355.373 163.859 306.132 163.767C256.891 163.675 235.652 134.506 231.188 119.933Z" fill="black"/>
<path d="M42.3 355.35H28.85V351.2H42.3V355.35Z" fill="black"/>
<path d="M56.4406 355.35H42.9906V351.2H56.4406V355.35Z" fill="black"/>
<path d="M70.5813 355.35H57.1312V351.2H70.5813V355.35Z" fill="black"/>
<path d="M105.65 348.85C109.6 349.95 112.2 352.9 112.2 357.55C112.2 363.55 107.65 367 98.7996 367H82.0996V332H97.7996C105.85 332 110.35 335.4 110.35 341.05C110.35 344.85 108.4 347.5 105.65 348.85ZM97.3496 336.05H87.0996V347.25H97.3496C102.45 347.25 105.35 345.35 105.35 341.65C105.35 337.95 102.45 336.05 97.3496 336.05ZM87.0996 362.95H98.5996C104.15 362.95 107.15 361.2 107.15 357.15C107.15 353.1 104.15 351.3 98.5996 351.3H87.0996V362.95Z" fill="black"/>
<path d="M134.441 367.4C125.241 367.4 119.641 362.05 119.641 351.9V332H124.641V351.7C124.641 359.45 128.191 362.95 134.491 362.95C140.791 362.95 144.391 359.45 144.391 351.7V332H149.241V351.9C149.241 362.05 143.691 367.4 134.441 367.4Z" fill="black"/>
<path d="M164.492 367H159.492V332H164.492V367Z" fill="black"/>
<path d="M198.921 367H174.971V332H179.971V362.65H198.921V367Z" fill="black"/>
<path d="M213.287 367H208.337V336.35H196.337V332H225.287V336.35H213.287V367Z" fill="black"/>
<path d="M256.06 367H251.11V336.35H239.11V332H268.06V336.35H256.06V367Z" fill="black"/>
<path d="M288.818 367.4C278.068 367.4 270.168 359.75 270.168 349.5C270.168 339.25 278.068 331.6 288.818 331.6C299.468 331.6 307.368 339.2 307.368 349.5C307.368 359.8 299.468 367.4 288.818 367.4ZM288.818 362.95C296.568 362.95 302.368 357.25 302.368 349.5C302.368 341.75 296.568 336.05 288.818 336.05C280.968 336.05 275.168 341.75 275.168 349.5C275.168 357.25 280.968 362.95 288.818 362.95Z" fill="black"/>
<path d="M352.388 367H328.438V332H333.438V362.65H352.388V367Z" fill="black"/>
<path d="M389.525 367H384.275L380.425 358.25H361.825L357.975 367H352.825L368.675 332H373.625L389.525 367ZM371.125 337.1L363.575 354.25H378.675L371.125 337.1Z" fill="black"/>
<path d="M404.946 367.4C399.596 367.4 394.346 365.6 391.546 363L393.396 359.1C395.996 361.45 400.446 363.15 404.946 363.15C410.996 363.15 413.596 360.8 413.596 357.75C413.596 349.2 392.396 354.6 392.396 341.6C392.396 336.2 396.596 331.6 405.796 331.6C409.896 331.6 414.146 332.7 417.046 334.7L415.396 338.7C412.346 336.75 408.896 335.85 405.796 335.85C399.846 335.85 397.296 338.35 397.296 341.4C397.296 349.95 418.496 344.6 418.496 357.45C418.496 362.8 414.196 367.4 404.946 367.4Z" fill="black"/>
<path d="M437.212 367H432.263V336.35H420.263V332H449.212V336.35H437.212V367Z" fill="black"/>
<path d="M474.136 355.35H460.686V351.2H474.136V355.35Z" fill="black"/>
<path d="M488.277 355.35H474.827V351.2H488.277V355.35Z" fill="black"/>
<path d="M502.417 355.35H488.967V351.2H502.417V355.35Z" fill="black"/>
</svg>
