<svg width="1151" height="634" viewBox="0 0 1151 634" fill="none" xmlns="http://www.w3.org/2000/svg">
<path fill-rule="evenodd" clip-rule="evenodd" d="M212.765 500.165C250.685 500.165 279.965 525.605 279.965 567.125C279.965 570.005 279.485 574.085 279.245 577.205H181.565C185.165 593.285 198.845 603.125 218.525 603.125C232.205 603.125 242.045 599.045 250.925 590.645L270.845 612.245C258.845 625.925 240.845 633.125 217.565 633.125C172.925 633.125 143.885 605.045 143.885 566.645C143.885 528.005 173.405 500.165 212.765 500.165ZM213.005 528.485C195.965 528.485 183.725 538.805 181.085 555.365H244.685C242.045 539.045 229.805 528.485 213.005 528.485Z" fill="black"/>
<path fill-rule="evenodd" clip-rule="evenodd" d="M542.925 500.165C583.965 500.165 613.724 527.765 613.725 566.645C613.725 605.525 583.965 633.125 542.925 633.125C501.885 633.125 471.885 605.525 471.885 566.645C471.885 527.765 501.885 500.165 542.925 500.165ZM542.925 530.885C524.205 530.885 509.805 544.325 509.805 566.645C509.805 588.965 524.205 602.405 542.925 602.405C561.645 602.405 575.805 588.965 575.805 566.645C575.804 544.325 561.645 530.885 542.925 530.885Z" fill="black"/>
<path fill-rule="evenodd" clip-rule="evenodd" d="M1075 631.205H1039V616.325C1029.57 627.605 1015.78 633.125 998.384 633.125C961.645 633.125 933.365 607.205 933.365 566.645C933.365 526.085 961.645 500.165 998.384 500.165C1014.33 500.165 1027.87 505.205 1037.29 515.765V453.125H1075V631.205ZM1004.92 530.885C986.057 530.885 971.555 544.325 971.555 566.645C971.555 588.965 986.057 602.405 1004.92 602.405C1023.53 602.405 1038.03 588.965 1038.03 566.645C1038.03 544.325 1023.52 530.885 1004.92 530.885Z" fill="black"/>
<path fill-rule="evenodd" clip-rule="evenodd" d="M72.8447 463.205C117.725 463.205 145.805 486.485 145.805 524.165C145.805 549.365 133.085 567.845 111.245 577.205L148.925 631.205H107.165L74.7646 584.405H39.0049V631.205H0.125V463.205H72.8447ZM39.0049 553.445H70.6846C94.4446 553.445 106.445 542.405 106.445 524.165C106.445 505.685 94.4446 494.885 70.6846 494.885H39.0049V553.445Z" fill="black"/>
<path d="M476.085 494.405H388.005V538.805H465.765V570.005H388.005V631.205H349.125V463.205H476.085V494.405Z" fill="black"/>
<path d="M700.646 534.725C697.526 534.485 695.125 534.245 692.245 534.245C671.605 534.245 657.925 545.525 657.925 570.245V631.205H620.485V502.085H656.245V519.125C665.365 506.645 680.726 500.165 700.646 500.165V534.725Z" fill="black"/>
<path d="M874.845 500.165C905.565 500.165 927.646 517.925 927.646 557.285V631.205H890.205V563.045C890.205 542.165 880.845 532.566 865.725 532.566C848.925 532.566 837.165 543.366 837.165 566.405V631.205H799.725V563.045C799.725 542.165 790.845 532.566 775.245 532.566C758.685 532.566 746.925 543.365 746.925 566.405V631.205H709.485V502.085H745.245V516.965C754.845 505.925 769.245 500.165 785.805 500.165C803.805 500.165 819.165 507.125 828.285 521.285C838.605 508.085 855.405 500.165 874.845 500.165Z" fill="black"/>
<path d="M312.805 585.405C325.605 585.405 337.205 594.405 337.205 607.405C337.205 620.205 325.605 629.205 312.805 629.205C300.005 629.205 289.005 620.205 289.005 607.405C289.005 594.405 300.005 585.406 312.805 585.405Z" fill="black"/>
<path d="M312.805 520.205C325.605 520.205 337.205 529.205 337.205 542.205C337.205 555.005 325.605 564.005 312.805 564.005C300.005 564.005 289.005 555.005 289.005 542.205C289.005 529.205 300.005 520.205 312.805 520.205Z" fill="black"/>
<path d="M1108.83 463.725H1097.62V492.125H1089.53V463.725H1078.33V457.125H1108.83V463.725Z" fill="black"/>
<path d="M1131.08 478.875L1143.97 457.125H1150.62L1150.72 492.125H1143.12L1143.08 471.125L1132.78 488.425H1129.12L1118.88 471.575V492.125H1111.28V457.125H1117.97L1131.08 478.875Z" fill="black"/>
<path d="M630.346 150.341C656.474 213.365 619.459 241.931 597.686 248.335C620.74 248.335 673.764 238.344 701.428 198.378C736.009 148.42 718.719 102.304 705.271 79.2468C690.751 54.3511 632.766 0.467262 540.052 0.467157C536.21 0.467153 477.724 -1.98297 440.152 6.2315C397.292 15.6021 362.143 36.3438 349.859 46.5827C422.094 17.3766 492.664 31.8515 518.919 42.7398C545.175 52.3471 604.218 87.3175 630.346 150.341Z" fill="black"/>
<path d="M420.136 263.802C392.913 201.244 429.423 172.037 451.081 165.253C428.031 165.655 375.19 176.571 348.227 217.014C314.523 267.568 332.615 313.375 346.464 336.194C361.416 360.832 420.332 413.696 513.032 412.077C516.874 412.01 575.393 413.439 612.816 404.57C655.506 394.453 690.288 373.101 702.392 362.649C630.677 393.112 559.865 379.871 533.424 369.442C507.004 360.295 447.36 326.36 420.136 263.802Z" fill="black"/>
<path d="M585.584 168.838C330.651 83.3308 292.812 218.234 305.759 296.374C260.833 229.52 277.003 155.861 290.704 127.388C306.129 100.452 360.297 49.0792 453.564 59.0846C546.832 69.0901 580.439 136.422 585.584 168.838Z" fill="black"/>
<path d="M477.649 261.011C740.121 319.398 763.654 181.278 742.612 104.92C794.279 166.71 785.895 241.656 775.245 271.405C762.72 299.807 714.218 356.561 620.416 356.361C526.614 356.161 486.154 292.711 477.649 261.011Z" fill="black"/>
<path fill-rule="evenodd" clip-rule="evenodd" d="M212.765 500.165C250.685 500.165 279.965 525.605 279.965 567.125C279.965 570.005 279.485 574.085 279.245 577.205H181.565C185.165 593.285 198.845 603.125 218.525 603.125C232.205 603.125 242.045 599.045 250.925 590.645L270.845 612.245C258.845 625.925 240.845 633.125 217.565 633.125C172.925 633.125 143.885 605.045 143.885 566.645C143.885 528.005 173.405 500.165 212.765 500.165ZM213.005 528.485C195.965 528.485 183.725 538.805 181.085 555.365H244.685C242.045 539.045 229.805 528.485 213.005 528.485Z" stroke="black" stroke-width="0.25"/>
<path fill-rule="evenodd" clip-rule="evenodd" d="M542.925 500.165C583.965 500.165 613.724 527.765 613.725 566.645C613.725 605.525 583.965 633.125 542.925 633.125C501.885 633.125 471.885 605.525 471.885 566.645C471.885 527.765 501.885 500.165 542.925 500.165ZM542.925 530.885C524.205 530.885 509.805 544.325 509.805 566.645C509.805 588.965 524.205 602.405 542.925 602.405C561.645 602.405 575.805 588.965 575.805 566.645C575.804 544.325 561.645 530.885 542.925 530.885Z" stroke="black" stroke-width="0.25"/>
<path fill-rule="evenodd" clip-rule="evenodd" d="M1075 631.205H1039V616.325C1029.57 627.605 1015.78 633.125 998.384 633.125C961.645 633.125 933.365 607.205 933.365 566.645C933.365 526.085 961.645 500.165 998.384 500.165C1014.33 500.165 1027.87 505.205 1037.29 515.765V453.125H1075V631.205ZM1004.92 530.885C986.057 530.885 971.555 544.325 971.555 566.645C971.555 588.965 986.057 602.405 1004.92 602.405C1023.53 602.405 1038.03 588.965 1038.03 566.645C1038.03 544.325 1023.52 530.885 1004.92 530.885Z" stroke="black" stroke-width="0.25"/>
<path fill-rule="evenodd" clip-rule="evenodd" d="M72.8447 463.205C117.725 463.205 145.805 486.485 145.805 524.165C145.805 549.365 133.085 567.845 111.245 577.205L148.925 631.205H107.165L74.7646 584.405H39.0049V631.205H0.125V463.205H72.8447ZM39.0049 553.445H70.6846C94.4446 553.445 106.445 542.405 106.445 524.165C106.445 505.685 94.4446 494.885 70.6846 494.885H39.0049V553.445Z" stroke="black" stroke-width="0.25"/>
<path d="M476.085 494.405H388.005V538.805H465.765V570.005H388.005V631.205H349.125V463.205H476.085V494.405Z" stroke="black" stroke-width="0.25"/>
<path d="M700.646 534.725C697.526 534.485 695.125 534.245 692.245 534.245C671.605 534.245 657.925 545.525 657.925 570.245V631.205H620.485V502.085H656.245V519.125C665.365 506.645 680.726 500.165 700.646 500.165V534.725Z" stroke="black" stroke-width="0.25"/>
<path d="M874.845 500.165C905.565 500.165 927.646 517.925 927.646 557.285V631.205H890.205V563.045C890.205 542.165 880.845 532.566 865.725 532.566C848.925 532.566 837.165 543.366 837.165 566.405V631.205H799.725V563.045C799.725 542.165 790.845 532.566 775.245 532.566C758.685 532.566 746.925 543.365 746.925 566.405V631.205H709.485V502.085H745.245V516.965C754.845 505.925 769.245 500.165 785.805 500.165C803.805 500.165 819.165 507.125 828.285 521.285C838.605 508.085 855.405 500.165 874.845 500.165Z" stroke="black" stroke-width="0.25"/>
<path d="M312.805 585.405C325.605 585.405 337.205 594.405 337.205 607.405C337.205 620.205 325.605 629.205 312.805 629.205C300.005 629.205 289.005 620.205 289.005 607.405C289.005 594.405 300.005 585.406 312.805 585.405Z" stroke="black" stroke-width="0.25"/>
<path d="M312.805 520.205C325.605 520.205 337.205 529.205 337.205 542.205C337.205 555.005 325.605 564.005 312.805 564.005C300.005 564.005 289.005 555.005 289.005 542.205C289.005 529.205 300.005 520.205 312.805 520.205Z" stroke="black" stroke-width="0.25"/>
<path d="M1108.83 463.725H1097.62V492.125H1089.53V463.725H1078.33V457.125H1108.83V463.725Z" stroke="black" stroke-width="0.25"/>
<path d="M1131.08 478.875L1143.97 457.125H1150.62L1150.72 492.125H1143.12L1143.08 471.125L1132.78 488.425H1129.12L1118.88 471.575V492.125H1111.28V457.125H1117.97L1131.08 478.875Z" stroke="black" stroke-width="0.25"/>
<path d="M630.346 150.341C656.474 213.365 619.459 241.931 597.686 248.335C620.74 248.335 673.764 238.344 701.428 198.378C736.009 148.42 718.719 102.304 705.271 79.2468C690.751 54.3511 632.766 0.467262 540.052 0.467157C536.21 0.467153 477.724 -1.98297 440.152 6.2315C397.292 15.6021 362.143 36.3438 349.859 46.5827C422.094 17.3766 492.664 31.8515 518.919 42.7398C545.175 52.3471 604.218 87.3175 630.346 150.341Z" stroke="black" stroke-width="0.25"/>
<path d="M420.136 263.802C392.913 201.244 429.423 172.037 451.081 165.253C428.031 165.655 375.19 176.571 348.227 217.014C314.523 267.568 332.615 313.375 346.464 336.194C361.416 360.832 420.332 413.696 513.032 412.077C516.874 412.01 575.393 413.439 612.816 404.57C655.506 394.453 690.288 373.101 702.392 362.649C630.677 393.112 559.865 379.871 533.424 369.442C507.004 360.295 447.36 326.36 420.136 263.802Z" stroke="black" stroke-width="0.25"/>
<path d="M585.584 168.838C330.651 83.3308 292.812 218.234 305.759 296.374C260.833 229.52 277.003 155.861 290.704 127.388C306.129 100.452 360.297 49.0792 453.564 59.0846C546.832 69.0901 580.439 136.422 585.584 168.838Z" stroke="black" stroke-width="0.25"/>
<path d="M477.649 261.011C740.121 319.398 763.654 181.278 742.612 104.92C794.279 166.71 785.895 241.656 775.245 271.405C762.72 299.807 714.218 356.561 620.416 356.361C526.614 356.161 486.154 292.711 477.649 261.011Z" stroke="black" stroke-width="0.25"/>
</svg>
